<mxfile host="app.diagrams.net" modified="2024-05-09T22:19:58.213Z" agent="Mozilla/5.0 (Macintosh; Intel Mac OS X 10_15_7) AppleWebKit/537.36 (KHTML, like Gecko) Chrome/124.0.0.0 Safari/537.36" etag="SlwksDy32ie_xTzZzE1Z" version="24.3.1" type="device">
  <diagram name="Page-1" id="XWV96WsuD3gEZZso5NtV">
    <mxGraphModel dx="683" dy="1099" grid="1" gridSize="10" guides="1" tooltips="1" connect="1" arrows="1" fold="1" page="1" pageScale="1" pageWidth="850" pageHeight="1100" math="0" shadow="0">
      <root>
        <mxCell id="0" />
        <mxCell id="1" parent="0" />
        <mxCell id="bm8Zpv09B716dSuUSyXk-38" value="" style="whiteSpace=wrap;html=1;aspect=fixed;strokeWidth=4;strokeColor=#333333;" vertex="1" parent="1">
          <mxGeometry x="40" y="40" width="40" height="40" as="geometry" />
        </mxCell>
        <mxCell id="bm8Zpv09B716dSuUSyXk-39" value="" style="whiteSpace=wrap;html=1;aspect=fixed;strokeWidth=4;strokeColor=#333333;" vertex="1" parent="1">
          <mxGeometry x="80" y="40" width="40" height="40" as="geometry" />
        </mxCell>
        <mxCell id="bm8Zpv09B716dSuUSyXk-40" value="" style="whiteSpace=wrap;html=1;aspect=fixed;strokeWidth=4;strokeColor=#333333;" vertex="1" parent="1">
          <mxGeometry x="120" y="40" width="40" height="40" as="geometry" />
        </mxCell>
        <mxCell id="bm8Zpv09B716dSuUSyXk-41" value="" style="whiteSpace=wrap;html=1;aspect=fixed;strokeWidth=4;strokeColor=#333333;" vertex="1" parent="1">
          <mxGeometry x="160" y="40" width="40" height="40" as="geometry" />
        </mxCell>
        <mxCell id="bm8Zpv09B716dSuUSyXk-42" value="" style="whiteSpace=wrap;html=1;aspect=fixed;strokeWidth=4;strokeColor=#333333;" vertex="1" parent="1">
          <mxGeometry x="200" y="40" width="40" height="40" as="geometry" />
        </mxCell>
        <mxCell id="bm8Zpv09B716dSuUSyXk-43" value="" style="whiteSpace=wrap;html=1;aspect=fixed;strokeWidth=4;strokeColor=#333333;" vertex="1" parent="1">
          <mxGeometry x="240" y="40" width="40" height="40" as="geometry" />
        </mxCell>
        <mxCell id="bm8Zpv09B716dSuUSyXk-44" value="" style="whiteSpace=wrap;html=1;aspect=fixed;strokeWidth=4;strokeColor=#333333;" vertex="1" parent="1">
          <mxGeometry x="280" y="40" width="40" height="40" as="geometry" />
        </mxCell>
        <mxCell id="bm8Zpv09B716dSuUSyXk-45" value="" style="whiteSpace=wrap;html=1;aspect=fixed;strokeWidth=4;strokeColor=#333333;" vertex="1" parent="1">
          <mxGeometry x="320" y="40" width="40" height="40" as="geometry" />
        </mxCell>
        <mxCell id="bm8Zpv09B716dSuUSyXk-46" value="" style="whiteSpace=wrap;html=1;aspect=fixed;strokeWidth=4;strokeColor=#333333;" vertex="1" parent="1">
          <mxGeometry x="200" y="80" width="40" height="40" as="geometry" />
        </mxCell>
        <mxCell id="bm8Zpv09B716dSuUSyXk-47" value="" style="whiteSpace=wrap;html=1;aspect=fixed;strokeWidth=4;strokeColor=#333333;" vertex="1" parent="1">
          <mxGeometry x="240" y="80" width="40" height="40" as="geometry" />
        </mxCell>
        <mxCell id="bm8Zpv09B716dSuUSyXk-48" value="" style="whiteSpace=wrap;html=1;aspect=fixed;strokeWidth=4;strokeColor=#333333;" vertex="1" parent="1">
          <mxGeometry x="280" y="80" width="40" height="40" as="geometry" />
        </mxCell>
        <mxCell id="bm8Zpv09B716dSuUSyXk-49" value="" style="whiteSpace=wrap;html=1;aspect=fixed;strokeWidth=4;strokeColor=#333333;" vertex="1" parent="1">
          <mxGeometry x="320" y="80" width="40" height="40" as="geometry" />
        </mxCell>
        <mxCell id="bm8Zpv09B716dSuUSyXk-50" value="" style="whiteSpace=wrap;html=1;aspect=fixed;strokeWidth=4;strokeColor=#333333;" vertex="1" parent="1">
          <mxGeometry x="40" y="80" width="40" height="40" as="geometry" />
        </mxCell>
        <mxCell id="bm8Zpv09B716dSuUSyXk-51" value="" style="whiteSpace=wrap;html=1;aspect=fixed;strokeWidth=4;strokeColor=#333333;" vertex="1" parent="1">
          <mxGeometry x="80" y="80" width="40" height="40" as="geometry" />
        </mxCell>
        <mxCell id="bm8Zpv09B716dSuUSyXk-52" value="" style="whiteSpace=wrap;html=1;aspect=fixed;strokeWidth=4;strokeColor=#333333;" vertex="1" parent="1">
          <mxGeometry x="120" y="80" width="40" height="40" as="geometry" />
        </mxCell>
        <mxCell id="bm8Zpv09B716dSuUSyXk-53" value="" style="whiteSpace=wrap;html=1;aspect=fixed;strokeWidth=4;strokeColor=#333333;" vertex="1" parent="1">
          <mxGeometry x="160" y="80" width="40" height="40" as="geometry" />
        </mxCell>
        <mxCell id="bm8Zpv09B716dSuUSyXk-54" value="" style="whiteSpace=wrap;html=1;aspect=fixed;strokeWidth=4;strokeColor=#333333;" vertex="1" parent="1">
          <mxGeometry x="40" y="120" width="40" height="40" as="geometry" />
        </mxCell>
        <mxCell id="bm8Zpv09B716dSuUSyXk-55" value="" style="whiteSpace=wrap;html=1;aspect=fixed;strokeWidth=4;strokeColor=#333333;" vertex="1" parent="1">
          <mxGeometry x="80" y="120" width="40" height="40" as="geometry" />
        </mxCell>
        <mxCell id="bm8Zpv09B716dSuUSyXk-56" value="" style="whiteSpace=wrap;html=1;aspect=fixed;strokeWidth=4;strokeColor=#333333;" vertex="1" parent="1">
          <mxGeometry x="120" y="120" width="40" height="40" as="geometry" />
        </mxCell>
        <mxCell id="bm8Zpv09B716dSuUSyXk-57" value="" style="whiteSpace=wrap;html=1;aspect=fixed;strokeWidth=4;strokeColor=#333333;" vertex="1" parent="1">
          <mxGeometry x="160" y="120" width="40" height="40" as="geometry" />
        </mxCell>
        <mxCell id="bm8Zpv09B716dSuUSyXk-58" value="" style="whiteSpace=wrap;html=1;aspect=fixed;strokeWidth=4;strokeColor=#333333;" vertex="1" parent="1">
          <mxGeometry x="200" y="120" width="40" height="40" as="geometry" />
        </mxCell>
        <mxCell id="bm8Zpv09B716dSuUSyXk-59" value="" style="whiteSpace=wrap;html=1;aspect=fixed;strokeWidth=4;strokeColor=#333333;" vertex="1" parent="1">
          <mxGeometry x="240" y="120" width="40" height="40" as="geometry" />
        </mxCell>
        <mxCell id="bm8Zpv09B716dSuUSyXk-60" value="" style="whiteSpace=wrap;html=1;aspect=fixed;strokeWidth=4;strokeColor=#333333;" vertex="1" parent="1">
          <mxGeometry x="280" y="120" width="40" height="40" as="geometry" />
        </mxCell>
        <mxCell id="bm8Zpv09B716dSuUSyXk-61" value="" style="whiteSpace=wrap;html=1;aspect=fixed;strokeWidth=4;strokeColor=#333333;" vertex="1" parent="1">
          <mxGeometry x="320" y="120" width="40" height="40" as="geometry" />
        </mxCell>
        <mxCell id="bm8Zpv09B716dSuUSyXk-62" value="" style="whiteSpace=wrap;html=1;aspect=fixed;strokeWidth=4;strokeColor=#333333;" vertex="1" parent="1">
          <mxGeometry x="200" y="160" width="40" height="40" as="geometry" />
        </mxCell>
        <mxCell id="bm8Zpv09B716dSuUSyXk-63" value="" style="whiteSpace=wrap;html=1;aspect=fixed;strokeWidth=4;strokeColor=#333333;" vertex="1" parent="1">
          <mxGeometry x="240" y="160" width="40" height="40" as="geometry" />
        </mxCell>
        <mxCell id="bm8Zpv09B716dSuUSyXk-64" value="" style="whiteSpace=wrap;html=1;aspect=fixed;strokeWidth=4;strokeColor=#333333;" vertex="1" parent="1">
          <mxGeometry x="280" y="160" width="40" height="40" as="geometry" />
        </mxCell>
        <mxCell id="bm8Zpv09B716dSuUSyXk-65" value="" style="whiteSpace=wrap;html=1;aspect=fixed;strokeWidth=4;strokeColor=#333333;" vertex="1" parent="1">
          <mxGeometry x="320" y="160" width="40" height="40" as="geometry" />
        </mxCell>
        <mxCell id="bm8Zpv09B716dSuUSyXk-66" value="" style="whiteSpace=wrap;html=1;aspect=fixed;strokeWidth=4;strokeColor=#333333;" vertex="1" parent="1">
          <mxGeometry x="40" y="160" width="40" height="40" as="geometry" />
        </mxCell>
        <mxCell id="bm8Zpv09B716dSuUSyXk-67" value="" style="whiteSpace=wrap;html=1;aspect=fixed;strokeWidth=4;strokeColor=#333333;" vertex="1" parent="1">
          <mxGeometry x="80" y="160" width="40" height="40" as="geometry" />
        </mxCell>
        <mxCell id="bm8Zpv09B716dSuUSyXk-68" value="" style="whiteSpace=wrap;html=1;aspect=fixed;strokeWidth=4;strokeColor=#333333;" vertex="1" parent="1">
          <mxGeometry x="120" y="160" width="40" height="40" as="geometry" />
        </mxCell>
        <mxCell id="bm8Zpv09B716dSuUSyXk-69" value="" style="whiteSpace=wrap;html=1;aspect=fixed;strokeWidth=4;strokeColor=#333333;" vertex="1" parent="1">
          <mxGeometry x="160" y="160" width="40" height="40" as="geometry" />
        </mxCell>
      </root>
    </mxGraphModel>
  </diagram>
</mxfile>
